<svg width="22" height="19" viewBox="0 0 22 19" fill="none" xmlns="http://www.w3.org/2000/svg">
<g clip-path="url(#clip0)">
<path d="M15.5833 16.0374V14.5281C15.5833 13.7275 15.197 12.9597 14.5094 12.3936C13.8217 11.8275 12.8891 11.5095 11.9166 11.5095H4.58329C3.61083 11.5095 2.6782 11.8275 1.99057 12.3936C1.30293 12.9597 0.916626 13.7275 0.916626 14.5281V16.0374" stroke="black" stroke-width="2" stroke-linecap="round" stroke-linejoin="round"/>
<path d="M8.25004 8.49098C10.2751 8.49098 11.9167 7.13952 11.9167 5.47242C11.9167 3.80531 10.2751 2.45386 8.25004 2.45386C6.225 2.45386 4.58337 3.80531 4.58337 5.47242C4.58337 7.13952 6.225 8.49098 8.25004 8.49098Z" stroke="black" stroke-width="2" stroke-linecap="round" stroke-linejoin="round"/>
<path d="M21.0834 16.0374V14.5281C21.0828 13.8593 20.8124 13.2096 20.3146 12.681C19.8169 12.1524 19.12 11.7749 18.3334 11.6077" stroke="black" stroke-width="2" stroke-linecap="round" stroke-linejoin="round"/>
<path d="M14.6666 2.55194C15.4553 2.71819 16.1544 3.09581 16.6536 3.62527C17.1528 4.15474 17.4238 4.80592 17.4238 5.47617C17.4238 6.14642 17.1528 6.7976 16.6536 7.32707C16.1544 7.85653 15.4553 8.23415 14.6666 8.4004" stroke="black" stroke-width="2" stroke-linecap="round" stroke-linejoin="round"/>
</g>
<defs>
<clipPath id="clip0">
<rect width="22" height="18.1114" fill="white" transform="translate(0 0.189941)"/>
</clipPath>
</defs>
</svg>
