<svg width="73" height="88" viewBox="0 0 73 88" fill="none" xmlns="http://www.w3.org/2000/svg">
<g clip-path="url(#clip0)">
<path d="M36.4996 67.0002C55.0009 67.0002 69.9992 52.0019 69.9992 33.5006C69.9992 14.9993 55.0009 0.000976562 36.4996 0.000976562C17.9983 0.000976562 3 14.9993 3 33.5006C3 52.0019 17.9983 67.0002 36.4996 67.0002Z" fill="#41B4E6"/>
<path d="M70 33.5004C70 32.6841 69.9693 31.8752 69.912 31.0735L56.0279 17.1897L16.9722 32.5524L31.9151 47.4955L32.1112 48.2011L32.3649 47.9453L32.3659 47.9463L32.1112 48.2011L48.6409 64.7309C61.1406 59.8681 70 47.7196 70 33.5004Z" fill="#0091C8"/>
<path d="M33.2465 38.381L48.3858 49.8112L56.0278 17.1897L16.9719 32.5524L28.8562 36.4888L50.5452 21.9404L33.2465 38.381Z" fill="white"/>
<path d="M28.8562 36.4888L32.1111 48.2013L33.2465 38.3811L50.5452 21.9404L28.8562 36.4888Z" fill="#D2D2D7"/>
<path d="M38.1669 42.0959L32.1111 48.2013L33.2466 38.381L38.1669 42.0959Z" fill="#B9B9BE"/>
</g>
<path d="M4.598 85.055C3.84267 85.055 3.16067 84.8863 2.552 84.549C1.95067 84.2117 1.474 83.746 1.122 83.152C0.777333 82.558 0.605 81.8907 0.605 81.15C0.605 80.4093 0.777333 79.742 1.122 79.148C1.474 78.554 1.95067 78.0883 2.552 77.751C3.16067 77.4137 3.84267 77.245 4.598 77.245C5.15533 77.245 5.66867 77.3367 6.138 77.52C6.60733 77.696 7.007 77.96 7.337 78.312L6.985 78.675C6.369 78.0663 5.58067 77.762 4.62 77.762C3.97467 77.762 3.388 77.9087 2.86 78.202C2.332 78.4953 1.91767 78.9023 1.617 79.423C1.31633 79.9363 1.166 80.512 1.166 81.15C1.166 81.788 1.31633 82.3673 1.617 82.888C1.91767 83.4013 2.332 83.8047 2.86 84.098C3.388 84.3913 3.97467 84.538 4.62 84.538C5.57333 84.538 6.36167 84.23 6.985 83.614L7.337 83.977C7.007 84.329 6.60367 84.5967 6.127 84.78C5.65767 84.9633 5.148 85.055 4.598 85.055ZM11.0155 85.044C10.4728 85.044 9.98147 84.9193 9.54147 84.67C9.1088 84.4207 8.7678 84.076 8.51847 83.636C8.26914 83.1887 8.14447 82.6863 8.14447 82.129C8.14447 81.5717 8.26914 81.073 8.51847 80.633C8.7678 80.1857 9.1088 79.8373 9.54147 79.588C9.98147 79.3387 10.4728 79.214 11.0155 79.214C11.5581 79.214 12.0458 79.3387 12.4785 79.588C12.9185 79.8373 13.2631 80.1857 13.5125 80.633C13.7618 81.073 13.8865 81.5717 13.8865 82.129C13.8865 82.6863 13.7618 83.1887 13.5125 83.636C13.2631 84.076 12.9185 84.4207 12.4785 84.67C12.0458 84.9193 11.5581 85.044 11.0155 85.044ZM11.0155 84.549C11.4555 84.549 11.8478 84.4463 12.1925 84.241C12.5445 84.0357 12.8195 83.7497 13.0175 83.383C13.2228 83.0163 13.3255 82.5983 13.3255 82.129C13.3255 81.6597 13.2228 81.2417 13.0175 80.875C12.8195 80.5083 12.5445 80.2223 12.1925 80.017C11.8478 79.8117 11.4555 79.709 11.0155 79.709C10.5755 79.709 10.1795 79.8117 9.82747 80.017C9.4828 80.2223 9.2078 80.5083 9.00247 80.875C8.80447 81.2417 8.70547 81.6597 8.70547 82.129C8.70547 82.5983 8.80447 83.0163 9.00247 83.383C9.2078 83.7497 9.4828 84.0357 9.82747 84.241C10.1795 84.4463 10.5755 84.549 11.0155 84.549ZM22.7428 79.214C23.4541 79.214 24.0114 79.423 24.4148 79.841C24.8254 80.259 25.0308 80.8603 25.0308 81.645V85H24.4808V81.689C24.4808 81.0437 24.3231 80.5523 24.0078 80.215C23.6924 79.8777 23.2524 79.709 22.6878 79.709C22.0424 79.709 21.5291 79.9107 21.1478 80.314C20.7738 80.7173 20.5868 81.26 20.5868 81.942V85H20.0368V81.689C20.0368 81.0437 19.8791 80.5523 19.5638 80.215C19.2484 79.8777 18.8084 79.709 18.2438 79.709C17.5984 79.709 17.0851 79.9107 16.7038 80.314C16.3298 80.7173 16.1428 81.26 16.1428 81.942V85H15.5928V79.258H16.1208V80.49C16.3114 80.0867 16.5938 79.775 16.9678 79.555C17.3491 79.3277 17.8001 79.214 18.3208 79.214C18.8414 79.214 19.2814 79.3313 19.6408 79.566C20.0074 79.8007 20.2678 80.1453 20.4218 80.6C20.6124 80.1747 20.9094 79.8373 21.3128 79.588C21.7234 79.3387 22.2001 79.214 22.7428 79.214ZM30.1837 79.214C30.7191 79.214 31.2031 79.3387 31.6357 79.588C32.0684 79.8373 32.4057 80.182 32.6477 80.622C32.8971 81.062 33.0217 81.5643 33.0217 82.129C33.0217 82.6937 32.8971 83.1997 32.6477 83.647C32.4057 84.087 32.0684 84.4317 31.6357 84.681C31.2031 84.923 30.7191 85.044 30.1837 85.044C29.6777 85.044 29.2194 84.9267 28.8087 84.692C28.3981 84.45 28.0791 84.1163 27.8517 83.691V87.134H27.3017V79.258H27.8297V80.611C28.0571 80.171 28.3761 79.83 28.7867 79.588C29.2047 79.3387 29.6704 79.214 30.1837 79.214ZM30.1507 84.549C30.5907 84.549 30.9867 84.4463 31.3387 84.241C31.6907 84.0357 31.9657 83.7497 32.1637 83.383C32.3691 83.0163 32.4717 82.5983 32.4717 82.129C32.4717 81.6597 32.3691 81.2417 32.1637 80.875C31.9657 80.5083 31.6907 80.2223 31.3387 80.017C30.9867 79.8117 30.5907 79.709 30.1507 79.709C29.7107 79.709 29.3147 79.8117 28.9627 80.017C28.6181 80.2223 28.3431 80.5083 28.1377 80.875C27.9397 81.2417 27.8407 81.6597 27.8407 82.129C27.8407 82.5983 27.9397 83.0163 28.1377 83.383C28.3431 83.7497 28.6181 84.0357 28.9627 84.241C29.3147 84.4463 29.7107 84.549 30.1507 84.549ZM36.6391 79.214C37.3504 79.214 37.8968 79.3973 38.2781 79.764C38.6594 80.1233 38.8501 80.655 38.8501 81.359V85H38.3221V83.977C38.1388 84.3143 37.8711 84.5783 37.5191 84.769C37.1671 84.9523 36.7454 85.044 36.2541 85.044C35.6161 85.044 35.1101 84.8937 34.7361 84.593C34.3694 84.2923 34.1861 83.8963 34.1861 83.405C34.1861 82.9283 34.3548 82.5433 34.6921 82.25C35.0368 81.9493 35.5831 81.799 36.3311 81.799H38.3001V81.337C38.3001 80.8017 38.1534 80.3947 37.8601 80.116C37.5741 79.8373 37.1524 79.698 36.5951 79.698C36.2138 79.698 35.8471 79.764 35.4951 79.896C35.1504 80.028 34.8571 80.204 34.6151 80.424L34.3401 80.028C34.6261 79.7713 34.9708 79.5733 35.3741 79.434C35.7774 79.2873 36.1991 79.214 36.6391 79.214ZM36.3311 84.593C36.8078 84.593 37.2111 84.483 37.5411 84.263C37.8784 84.043 38.1314 83.724 38.3001 83.306V82.228H36.3421C35.7774 82.228 35.3668 82.3307 35.1101 82.536C34.8608 82.7413 34.7361 83.0237 34.7361 83.383C34.7361 83.757 34.8754 84.054 35.1541 84.274C35.4328 84.4867 35.8251 84.593 36.3311 84.593ZM41.6442 80.512C41.8202 80.094 42.0952 79.775 42.4692 79.555C42.8432 79.3277 43.2979 79.214 43.8332 79.214V79.753L43.7012 79.742C43.0632 79.742 42.5645 79.9437 42.2052 80.347C41.8459 80.743 41.6662 81.2967 41.6662 82.008V85H41.1162V79.258H41.6442V80.512ZM48.4554 84.637C48.3161 84.769 48.1401 84.8717 47.9274 84.945C47.7221 85.011 47.5058 85.044 47.2784 85.044C46.7798 85.044 46.3948 84.9083 46.1234 84.637C45.8521 84.3583 45.7164 83.9733 45.7164 83.482V79.731H44.6604V79.258H45.7164V78.004H46.2664V79.258H48.0924V79.731H46.2664V83.427C46.2664 83.801 46.3544 84.087 46.5304 84.285C46.7138 84.4757 46.9814 84.571 47.3334 84.571C47.6928 84.571 47.9898 84.4647 48.2244 84.252L48.4554 84.637ZM49.9892 79.258H50.5392V85H49.9892V79.258ZM50.2642 77.861C50.1396 77.861 50.0332 77.8207 49.9452 77.74C49.8572 77.652 49.8132 77.5457 49.8132 77.421C49.8132 77.2963 49.8572 77.19 49.9452 77.102C50.0332 77.014 50.1396 76.97 50.2642 76.97C50.3889 76.97 50.4952 77.014 50.5832 77.102C50.6712 77.1827 50.7152 77.2853 50.7152 77.41C50.7152 77.5347 50.6712 77.641 50.5832 77.729C50.4952 77.817 50.3889 77.861 50.2642 77.861ZM52.8574 76.838H53.4074V85H52.8574V76.838ZM58.5306 79.214C59.2492 79.214 59.8176 79.423 60.2356 79.841C60.6536 80.259 60.8626 80.8603 60.8626 81.645V85H60.3126V81.689C60.3126 81.0437 60.1476 80.5523 59.8176 80.215C59.4949 79.8777 59.0402 79.709 58.4536 79.709C57.7789 79.709 57.2472 79.9107 56.8586 80.314C56.4699 80.7173 56.2756 81.26 56.2756 81.942V85H55.7256V76.838H56.2756V80.457C56.4736 80.061 56.7669 79.7567 57.1556 79.544C57.5442 79.324 58.0026 79.214 58.5306 79.214ZM65.0629 79.214C65.7743 79.214 66.3206 79.3973 66.7019 79.764C67.0833 80.1233 67.2739 80.655 67.2739 81.359V85H66.7459V83.977C66.5626 84.3143 66.2949 84.5783 65.9429 84.769C65.5909 84.9523 65.1693 85.044 64.6779 85.044C64.0399 85.044 63.5339 84.8937 63.1599 84.593C62.7933 84.2923 62.6099 83.8963 62.6099 83.405C62.6099 82.9283 62.7786 82.5433 63.1159 82.25C63.4606 81.9493 64.0069 81.799 64.7549 81.799H66.7239V81.337C66.7239 80.8017 66.5773 80.3947 66.2839 80.116C65.9979 79.8373 65.5763 79.698 65.0189 79.698C64.6376 79.698 64.2709 79.764 63.9189 79.896C63.5743 80.028 63.2809 80.204 63.0389 80.424L62.7639 80.028C63.0499 79.7713 63.3946 79.5733 63.7979 79.434C64.2013 79.2873 64.6229 79.214 65.0629 79.214ZM64.7549 84.593C65.2316 84.593 65.6349 84.483 65.9649 84.263C66.3023 84.043 66.5553 83.724 66.7239 83.306V82.228H64.7659C64.2013 82.228 63.7906 82.3307 63.5339 82.536C63.2846 82.7413 63.1599 83.0237 63.1599 83.383C63.1599 83.757 63.2993 84.054 63.5779 84.274C63.8566 84.4867 64.2489 84.593 64.7549 84.593ZM70.068 80.512C70.244 80.094 70.519 79.775 70.893 79.555C71.267 79.3277 71.7217 79.214 72.257 79.214V79.753L72.125 79.742C71.487 79.742 70.9884 79.9437 70.629 80.347C70.2697 80.743 70.09 81.2967 70.09 82.008V85H69.54V79.258H70.068V80.512Z" fill="black"/>
<defs>
<clipPath id="clip0">
<rect width="67" height="67" fill="white" transform="translate(3)"/>
</clipPath>
</defs>
</svg>
